<svg width="160" height="30" viewBox="0 0 160 30" fill="none" xmlns="http://www.w3.org/2000/svg">
<path d="M4.733 25.152C5.00433 25.1767 5.362 25.2013 5.806 25.226C6.25 25.226 6.85433 25.226 7.619 25.226C10.7517 25.226 13.0827 24.4367 14.612 22.858C16.166 21.2547 16.943 19.0223 16.943 16.161C16.943 13.2503 16.1907 11.018 14.686 9.464C13.1813 7.91 10.8503 7.133 7.693 7.133C6.31167 7.133 5.325 7.17 4.733 7.244V25.152ZM21.827 16.161C21.827 18.381 21.4817 20.3173 20.791 21.97C20.1003 23.598 19.1137 24.967 17.831 26.077C16.573 27.1623 15.0437 27.9763 13.243 28.519C11.467 29.037 9.49367 29.296 7.323 29.296C6.287 29.296 5.11533 29.2467 3.808 29.148C2.50067 29.074 1.255 28.9013 0.0710002 28.63V3.729C1.255 3.45767 2.513 3.285 3.845 3.211C5.177 3.137 6.361 3.1 7.397 3.1C9.543 3.1 11.504 3.359 13.28 3.877C15.056 4.37033 16.573 5.15967 17.831 6.245C19.1137 7.30567 20.1003 8.66233 20.791 10.315C21.4817 11.943 21.827 13.8917 21.827 16.161ZM25.6227 19.417C25.6227 17.715 25.8693 16.2227 26.3627 14.94C26.8807 13.6573 27.559 12.5967 28.3977 11.758C29.2363 10.8947 30.1983 10.2533 31.2837 9.834C32.369 9.39 33.479 9.168 34.6137 9.168C37.2777 9.168 39.3497 9.99433 40.8297 11.647C42.3343 13.2997 43.0867 15.7663 43.0867 19.047C43.0867 19.2937 43.0743 19.5773 43.0497 19.898C43.0497 20.194 43.0373 20.4653 43.0127 20.712H30.2477C30.371 22.266 30.9137 23.4747 31.8757 24.338C32.8623 25.1767 34.2807 25.596 36.1307 25.596C37.216 25.596 38.2027 25.4973 39.0907 25.3C40.0033 25.1027 40.7187 24.893 41.2367 24.671L41.8287 28.334C41.582 28.4573 41.2367 28.593 40.7927 28.741C40.3733 28.8643 39.88 28.9753 39.3127 29.074C38.77 29.1973 38.178 29.296 37.5367 29.37C36.8953 29.444 36.2417 29.481 35.5757 29.481C33.8737 29.481 32.3937 29.2343 31.1357 28.741C29.8777 28.223 28.8417 27.52 28.0277 26.632C27.2137 25.7193 26.6093 24.6587 26.2147 23.45C25.82 22.2167 25.6227 20.8723 25.6227 19.417ZM38.6097 17.419C38.6097 16.8023 38.5233 16.2227 38.3507 15.68C38.178 15.1127 37.919 14.6317 37.5737 14.237C37.253 13.8177 36.846 13.497 36.3527 13.275C35.884 13.0283 35.3167 12.905 34.6507 12.905C33.96 12.905 33.3557 13.0407 32.8377 13.312C32.3197 13.5587 31.8757 13.8917 31.5057 14.311C31.1603 14.7303 30.889 15.2113 30.6917 15.754C30.4943 16.2967 30.3587 16.8517 30.2847 17.419H38.6097ZM52.6804 25.781C53.8644 25.781 54.7277 25.6453 55.2704 25.374C55.813 25.078 56.0844 24.5847 56.0844 23.894C56.0844 23.2527 55.7884 22.7223 55.1964 22.303C54.629 21.8837 53.6794 21.4273 52.3474 20.934C51.5334 20.638 50.781 20.3297 50.0904 20.009C49.4244 19.6637 48.8447 19.269 48.3514 18.825C47.858 18.381 47.4634 17.8507 47.1674 17.234C46.896 16.5927 46.7604 15.8157 46.7604 14.903C46.7604 13.127 47.414 11.7333 48.7214 10.722C50.0287 9.686 51.8047 9.168 54.0494 9.168C55.184 9.168 56.2694 9.279 57.3054 9.501C58.3414 9.69833 59.1184 9.89566 59.6364 10.093L58.8224 13.719C58.329 13.497 57.7 13.2997 56.9354 13.127C56.1707 12.9297 55.2827 12.831 54.2714 12.831C53.3587 12.831 52.6187 12.9913 52.0514 13.312C51.484 13.608 51.2004 14.0767 51.2004 14.718C51.2004 15.0387 51.2497 15.3223 51.3484 15.569C51.4717 15.8157 51.669 16.05 51.9404 16.272C52.2117 16.4693 52.5694 16.679 53.0134 16.901C53.4574 17.0983 54 17.308 54.6414 17.53C55.702 17.9247 56.6024 18.3193 57.3424 18.714C58.0824 19.084 58.6867 19.5157 59.1554 20.009C59.6487 20.4777 60.0064 21.0203 60.2284 21.637C60.4504 22.2537 60.5614 22.9937 60.5614 23.857C60.5614 25.707 59.8707 27.113 58.4894 28.075C57.1327 29.0123 55.184 29.481 52.6434 29.481C50.9414 29.481 49.5724 29.333 48.5364 29.037C47.5004 28.7657 46.7727 28.5437 46.3534 28.371L47.1304 24.634C47.7964 24.9053 48.5857 25.1643 49.4984 25.411C50.4357 25.6577 51.4964 25.781 52.6804 25.781ZM71.5515 25.855C72.9329 25.855 73.9812 25.781 74.6965 25.633V20.675C74.4499 20.601 74.0922 20.527 73.6235 20.453C73.1549 20.379 72.6369 20.342 72.0695 20.342C71.5762 20.342 71.0705 20.379 70.5525 20.453C70.0592 20.527 69.6029 20.6627 69.1835 20.86C68.7889 21.0573 68.4682 21.341 68.2215 21.711C67.9749 22.0563 67.8515 22.5003 67.8515 23.043C67.8515 24.1037 68.1845 24.8437 68.8505 25.263C69.5165 25.6577 70.4169 25.855 71.5515 25.855ZM71.1815 9.168C72.6615 9.168 73.9072 9.353 74.9185 9.723C75.9299 10.093 76.7315 10.611 77.3235 11.277C77.9402 11.943 78.3719 12.757 78.6185 13.719C78.8899 14.6563 79.0255 15.6923 79.0255 16.827V28.556C78.3349 28.704 77.2865 28.8767 75.8805 29.074C74.4992 29.296 72.9329 29.407 71.1815 29.407C70.0222 29.407 68.9615 29.296 67.9995 29.074C67.0375 28.852 66.2112 28.4943 65.5205 28.001C64.8545 27.5077 64.3242 26.8663 63.9295 26.077C63.5595 25.2877 63.3745 24.3133 63.3745 23.154C63.3745 22.044 63.5842 21.1067 64.0035 20.342C64.4475 19.5773 65.0395 18.9607 65.7795 18.492C66.5195 17.9987 67.3705 17.6533 68.3325 17.456C69.3192 17.234 70.3429 17.123 71.4035 17.123C71.8969 17.123 72.4149 17.16 72.9575 17.234C73.5002 17.2833 74.0799 17.382 74.6965 17.53V16.79C74.6965 16.272 74.6349 15.7787 74.5115 15.31C74.3882 14.8413 74.1662 14.4343 73.8455 14.089C73.5495 13.719 73.1425 13.4353 72.6245 13.238C72.1312 13.0407 71.5022 12.942 70.7375 12.942C69.7015 12.942 68.7519 13.016 67.8885 13.164C67.0252 13.312 66.3222 13.4847 65.7795 13.682L65.2245 10.056C65.7919 9.85867 66.6182 9.66133 67.7035 9.464C68.7889 9.26667 69.9482 9.168 71.1815 9.168ZM88.9852 17.197C89.5525 16.605 90.1568 15.976 90.7982 15.31C91.4395 14.6193 92.0685 13.941 92.6852 13.275C93.3018 12.5843 93.8815 11.9307 94.4242 11.314C94.9915 10.6727 95.4725 10.1177 95.8672 9.649H101.158C99.9248 11.0303 98.6175 12.461 97.2362 13.941C95.8795 15.421 94.5105 16.864 93.1292 18.27C93.8692 18.8867 94.6462 19.639 95.4602 20.527C96.2742 21.3903 97.0635 22.3153 97.8282 23.302C98.5928 24.2887 99.3082 25.2753 99.9742 26.262C100.64 27.2487 101.195 28.1613 101.639 29H96.4592C96.0152 28.2353 95.4972 27.4337 94.9052 26.595C94.3378 25.7563 93.7212 24.9423 93.0552 24.153C92.3892 23.3637 91.7108 22.6237 91.0202 21.933C90.3295 21.2177 89.6512 20.6133 88.9852 20.12V29H84.5082V1.028L88.9852 0.287999V17.197ZM120.76 28.408C119.897 28.63 118.774 28.852 117.393 29.074C116.012 29.3207 114.495 29.444 112.842 29.444C111.288 29.444 109.981 29.222 108.92 28.778C107.884 28.334 107.045 27.7173 106.404 26.928C105.787 26.1387 105.343 25.2013 105.072 24.116C104.801 23.006 104.665 21.7973 104.665 20.49V9.649H109.142V19.787C109.142 21.859 109.438 23.339 110.03 24.227C110.647 25.115 111.707 25.559 113.212 25.559C113.755 25.559 114.322 25.5343 114.914 25.485C115.531 25.4357 115.987 25.374 116.283 25.3V9.649H120.76V28.408ZM138.002 16.827C137.435 18.9977 136.818 21.119 136.152 23.191C135.511 25.2383 134.87 27.1747 134.228 29H130.565C130.072 27.8653 129.554 26.5703 129.011 25.115C128.469 23.6597 127.926 22.1057 127.383 20.453C126.841 18.8003 126.298 17.0613 125.755 15.236C125.213 13.4107 124.682 11.5483 124.164 9.649H128.9C129.122 10.685 129.381 11.8073 129.677 13.016C129.973 14.2 130.282 15.421 130.602 16.679C130.923 17.9123 131.256 19.121 131.601 20.305C131.947 21.489 132.292 22.5743 132.637 23.561C133.007 22.4263 133.365 21.2547 133.71 20.046C134.08 18.8373 134.426 17.6287 134.746 16.42C135.067 15.2113 135.363 14.0397 135.634 12.905C135.93 11.7457 136.189 10.6603 136.411 9.649H139.852C140.074 10.6603 140.321 11.7457 140.592 12.905C140.864 14.0397 141.147 15.2113 141.443 16.42C141.764 17.6287 142.097 18.8373 142.442 20.046C142.812 21.2547 143.182 22.4263 143.552 23.561C143.873 22.5743 144.206 21.489 144.551 20.305C144.897 19.121 145.23 17.9123 145.55 16.679C145.896 15.421 146.216 14.2 146.512 13.016C146.808 11.8073 147.067 10.685 147.289 9.649H151.914C151.396 11.5483 150.866 13.4107 150.323 15.236C149.781 17.0613 149.238 18.8003 148.695 20.453C148.153 22.1057 147.61 23.6597 147.067 25.115C146.525 26.5703 145.994 27.8653 145.476 29H141.85C141.209 27.1747 140.543 25.2383 139.852 23.191C139.186 21.119 138.57 18.9977 138.002 16.827ZM159.313 26.558C159.313 27.4213 159.017 28.1243 158.425 28.667C157.857 29.2097 157.167 29.481 156.353 29.481C155.514 29.481 154.811 29.2097 154.244 28.667C153.676 28.1243 153.393 27.4213 153.393 26.558C153.393 25.6947 153.676 24.9917 154.244 24.449C154.811 23.8817 155.514 23.598 156.353 23.598C157.167 23.598 157.857 23.8817 158.425 24.449C159.017 24.9917 159.313 25.6947 159.313 26.558Z" fill="#1A9425"/>
</svg>

